:SAMPLES-PER-SECOND 30
:FULLY-SPECIFIED
:DEGREES
180
root  34.83600166 36.49576142 -14.91910679 9.207769394 -7.352855682 4.643243313
lowerback  -6.853084564 -1.635479927 -1.186473846
upperback  -4.112150192 -1.618579984 -4.248159885
thorax  -0.4934230149 -0.6320794225 -3.824549913
lowerneck  1.324229956 -19.6583004 -12.8501997
upperneck  7.393919945 -27.57950211 16.23839951
head  6.072919846 -13.27610016 4.706359863
lclavicle  0 -4.497500157e-015 -2.743230041e-014
lhumerus  -49.94950104 29.92130089 60.05350113
lradius  -2.057401616e-006 -6.507048965e-006 29.79789925
lwrist  4.824992743e-007 -3.790274832e-007 -29.7439003
lhand  -4.446868818e-031 -37.43249893 -10.63160038
lfingers  90 7.125020027 -90
lthumb  95.05601971 -25.44887915 101.6342937
rclavicle  0 -4.497500157e-015 -2.743230041e-014
rhumerus  -16.16690063 -35.51229858 6.818529129
rradius  -5.16745672e-007 2.214343908e-008 38.04090118
rwrist  -0.0001011603963 -0.001600692281 -166.2120056
rhand  -1.771580338e-031 4.723889828 -7.614739895
rfingers  -90 -7.125020027 -90
rthumb  -85.03920942 -8.482337974 -59.52528987
rfemur  -14.40119648 16.28550911 11.54591274
rtibia  -1.913342357 -2.230984211 22.3928051
rfoot  -0.1629661769 -23.40890121 -34.4536171
rtoes  3.833923246 19.64387185 -101.2738861
lfemur  -9.332760811 -17.31765747 -21.58712196
ltibia  2.768968105 -2.271171093 15.44472408
lfoot  1.525009274 -21.58482933 38.97023773
ltoes  -8.682020026 -18.08720528 -116.1900526
181
root  34.83781289 36.49617293 -14.92113579 9.211699486 -7.34225893 4.636076927
lowerback  -6.838319778 -1.642830014 -1.207360506
upperback  -4.11055994 -1.62864995 -4.237730026
thorax  -0.4993140101 -0.6353888512 -3.80189991
lowerneck  1.33999002 -19.6548996 -12.84020042
upperneck  7.35738945 -27.56983757 16.21769714
head  6.053909779 -13.27540016 4.704179764
lclavicle  0 -4.497500157e-015 -2.743230041e-014
lhumerus  -49.92340088 29.79870033 60.12340164
lradius  -2.057401616e-006 -6.507048965e-006 29.81299973
lwrist  4.824992743e-007 -3.790274832e-007 -29.64159966
lhand  -4.445722858e-031 -37.41320038 -10.73250008
lfingers  90 7.125020027 -90
lthumb  95.06946723 -25.54847534 101.6232695
rclavicle  0 -4.497500157e-015 -2.743230041e-014
rhumerus  -16.21190071 -35.58319473 6.820659161
rradius  -5.16745672e-007 2.214343908e-008 38.08860016
rwrist  -0.0001011603963 -0.001600692281 -166.2539978
rhand  -1.771080799e-031 4.52410984 -7.264560223
rfingers  -90 -7.125020027 -90
rthumb  -84.90647594 -8.771361956 -59.69309881
rfemur  -14.39577484 16.25306702 11.545434
rtibia  -1.914077759 -2.228827 22.37908554
rfoot  -0.1591501683 -23.40792847 -34.44582367
rtoes  3.847099621 19.64139363 -101.3130837
lfemur  -9.373461723 -17.25604439 -21.55205536
ltibia  2.740798712 -2.232072592 15.47768211
lfoot  1.527986169 -21.68074226 38.94852829
ltoes  -8.681632681 -18.08738637 -116.188805
182
root  34.83820037 36.49602875 -14.9251217 9.20371151 -7.33004427 4.6300807
lowerback  -6.851222992 -1.644555211 -1.186494946
upperback  -4.12346983 -1.620689988 -4.238729954
thorax  -0.5057550073 -0.6370749474 -3.813719988
lowerneck  1.40565002 -19.6595993 -12.88099957
upperneck  7.347859859 -27.58049774 16.22470093
head  6.047550201 -13.28559971 4.715720177
lclavicle  0 -4.497500157e-015 -2.743230041e-014
lhumerus  -49.9469986 29.79339981 60.12009811
lradius  -2.057401616e-006 -6.507048965e-006 29.80560112
lwrist  4.824992743e-007 -3.790274832e-007 -29.6758976
lhand  -4.44261081e-031 -37.3606987 -10.75469971
lfingers  90 7.125020027 -90
lthumb  95.04975088 -25.57223674 101.5692926
rclavicle  0 -4.497500157e-015 -2.743230041e-014
rhumerus  -16.3057003 -35.56669617 6.854588985
rradius  -5.16745672e-007 2.214343908e-008 38.13949966
rwrist  -0.0001011603963 -0.001600692281 -166.3049927
rhand  -1.770601404e-031 4.323619843 -7.260509968
rfingers  -90 -7.125020027 -90
rthumb  -84.95130306 -8.762095042 -59.88835498
rfemur  -14.40304947 16.26887131 11.55439091
rtibia  -1.914733887 -2.21137476 22.40323448
rfoot  -0.1780460477 -23.39238739 -34.48257065
rtoes  3.862054211 19.63857022 -101.357577
lfemur  -9.370862007 -17.22913551 -21.53546715
ltibia  2.732748985 -2.225341558 15.47314548
lfoot  1.53314054 -21.68240166 38.94485855
ltoes  -8.651883418 -18.10126469 -116.0930196
183
root  34.83915554 36.4952538 -14.92875317 9.179864883 -7.315294266 4.598295212
lowerback  -6.871834278 -1.64567852 -1.218515158
upperback  -4.148290157 -1.624162197 -4.234650135
thorax  -0.5190879703 -0.6383696795 -3.792180061
lowerneck  1.403300047 -19.67320061 -12.96070004
upperneck  7.436049938 -27.60860062 16.19960022
head  6.086760044 -13.29880047 4.708220005
lclavicle  0 -4.497500157e-015 -2.743230041e-014
lhumerus  -49.99940109 29.8593998 60.06959915
lradius  -2.057401616e-006 -6.507048965e-006 29.78420258
lwrist  4.824992743e-007 -3.790274832e-007 -29.82780075
lhand  -4.444376243e-031 -37.39049911 -10.64420033
lfingers  90 7.125020027 -90
lthumb  95.03917786 -25.46282472 101.5906279
rclavicle  0 -4.497500157e-015 -2.743230041e-014
rhumerus  -16.32439995 -35.64720535 6.854619503
rradius  -5.16745672e-007 2.214343908e-008 38.19079971
rwrist  -0.0001011603963 -0.001600692281 -166.128006
rhand  -1.771090098e-031 4.527910233 -7.418739796
rfingers  -90 -7.125020027 -90
rthumb  -84.9842808 -8.63851772 -59.70133041
rfemur  -14.3707552 16.27510452 11.58697701
rtibia  -1.894305587 -2.175046206 22.39112091
rfoot  -0.1697643399 -23.3631916 -34.49004745
rtoes  3.835383386 19.64359766 -101.2782295
lfemur  -9.34118557 -17.22292328 -21.49906158
ltibia  2.716197252 -2.194657326 15.47670174
lfoot  1.533701062 -21.74060631 38.98172379
ltoes  -8.663773519 -18.09572501 -116.1312943
